<svg width="48" height="32" viewBox="0 0 48 32" fill="none" xmlns="http://www.w3.org/2000/svg">
<rect width="48" height="32" rx="1.71429" fill="white"/>
<mask id="mask0_912_821" style="mask-type:alpha" maskUnits="userSpaceOnUse" x="0" y="0" width="48" height="32">
<rect width="48" height="32" rx="1.71429" fill="white"/>
</mask>
<g mask="url(#mask0_912_821)">
<rect width="48" height="32" fill="#128C4B"/>
<path fill-rule="evenodd" clip-rule="evenodd" d="M11.4297 19.2H29.7154V16.8972C29.7154 16.4791 30.1496 16.2026 30.5285 16.3794L32.0011 17.0666V19.2H36.0011C36.3167 19.2 36.5725 19.4558 36.5725 19.7714V22.3238C36.5725 22.9549 36.0609 23.4666 35.4297 23.4666H30.2868C29.9712 23.4666 29.7154 23.2108 29.7154 22.8952V21.3333H13.9406C13.7959 21.3333 13.6566 21.2784 13.5507 21.1796L11.4297 19.2Z" fill="white"/>
<path fill-rule="evenodd" clip-rule="evenodd" d="M11.4297 12.9242C11.4297 12.845 11.4626 12.7694 11.5205 12.7153L12.3488 11.9423C12.4698 11.8293 12.4698 11.6375 12.3488 11.5245L11.5205 10.7514C11.4626 10.6974 11.4297 10.6218 11.4297 10.5426V8.8191C11.4297 8.6613 11.5576 8.53339 11.7154 8.53339H13.4297C13.5875 8.53339 13.7154 8.6613 13.7154 8.8191V9.52834C13.7154 9.8255 14.1126 9.9252 14.253 9.66326L14.7775 8.68418C14.8272 8.59134 14.924 8.53339 15.0293 8.53339H18.0011C18.1589 8.53339 18.2868 8.6613 18.2868 8.8191V9.31434C18.2868 9.47213 18.1589 9.60005 18.0011 9.60005H16.2868C16.129 9.60005 16.0011 9.72797 16.0011 9.88577V10.381C16.0011 10.5388 16.129 10.6667 16.2868 10.6667H18.0011C18.1589 10.6667 18.2868 10.7946 18.2868 10.9524V14.6477C18.2868 14.8055 18.1589 14.9334 18.0011 14.9334H16.2868C16.129 14.9334 16.0011 14.8055 16.0011 14.6477V13.0858C16.0011 12.928 16.129 12.8001 16.2868 12.8001H16.8583C17.0161 12.8001 17.144 12.6721 17.144 12.5143V12.0191C17.144 11.8613 17.0161 11.7334 16.8583 11.7334H15.144C14.9862 11.7334 14.8583 11.8613 14.8583 12.0191V14.6477C14.8583 14.8055 14.7303 14.9334 14.5725 14.9334H14.0011C13.8433 14.9334 13.7154 14.8055 13.7154 14.6477V13.0858C13.7154 12.928 13.5875 12.8001 13.4297 12.8001H12.8583C12.7005 12.8001 12.5725 12.928 12.5725 13.0858V14.6477C12.5725 14.8055 12.4446 14.9334 12.2868 14.9334H11.7154C11.5576 14.9334 11.4297 14.8055 11.4297 14.6477V12.9242Z" fill="white"/>
<path fill-rule="evenodd" clip-rule="evenodd" d="M29.7148 12.9242C29.7148 12.845 29.7477 12.7694 29.8056 12.7153L30.6339 11.9423C30.7549 11.8293 30.7549 11.6375 30.6339 11.5245L29.8056 10.7514C29.7477 10.6974 29.7148 10.6218 29.7148 10.5426V8.8191C29.7148 8.6613 29.8428 8.53339 30.0006 8.53339H31.7148C31.8726 8.53339 32.0006 8.6613 32.0006 8.8191V9.52834C32.0006 9.8255 32.3978 9.9252 32.5381 9.66326L33.0626 8.68418C33.1124 8.59134 33.2092 8.53339 33.3145 8.53339H36.2863C36.4441 8.53339 36.572 8.6613 36.572 8.8191V9.31434C36.572 9.47213 36.4441 9.60005 36.2863 9.60005H34.572C34.4142 9.60005 34.2863 9.72797 34.2863 9.88577V10.381C34.2863 10.5388 34.4142 10.6667 34.572 10.6667H36.2863C36.4441 10.6667 36.572 10.7946 36.572 10.9524V14.6477C36.572 14.8055 36.4441 14.9334 36.2863 14.9334H34.572C34.4142 14.9334 34.2863 14.8055 34.2863 14.6477V13.0858C34.2863 12.928 34.4142 12.8001 34.572 12.8001H35.1434C35.3012 12.8001 35.4291 12.6721 35.4291 12.5143V12.0191C35.4291 11.8613 35.3012 11.7334 35.1434 11.7334H33.4291C33.2713 11.7334 33.1434 11.8613 33.1434 12.0191V14.6477C33.1434 14.8055 33.0155 14.9334 32.8577 14.9334H32.2863C32.1285 14.9334 32.0006 14.8055 32.0006 14.6477V13.0858C32.0006 12.928 31.8726 12.8001 31.7148 12.8001H31.1434C30.9856 12.8001 30.8577 12.928 30.8577 13.0858V14.6477C30.8577 14.8055 30.7298 14.9334 30.572 14.9334H30.0006C29.8428 14.9334 29.7148 14.8055 29.7148 14.6477V12.9242Z" fill="white"/>
<path fill-rule="evenodd" clip-rule="evenodd" d="M27.4275 10.1284C27.4275 10.4257 27.2489 10.8334 27.0149 11.0518L26.6972 11.3483C26.4693 11.561 26.4632 11.9001 26.6972 12.1185L27.0149 12.415C27.2427 12.6276 27.4275 13.0284 27.4275 13.3384V14.3951C27.4275 14.6924 27.1828 14.9334 26.8507 14.9334H25.7185C25.4 14.9334 25.1417 14.7051 25.1417 14.3951V13.3384C25.1417 13.0411 25.0363 12.9969 24.8767 13.2948L24.264 14.4386C24.1176 14.7119 23.7298 14.9334 23.4327 14.9334H21.1365C20.8238 14.9334 20.5703 14.686 20.5703 14.4001C20.5703 14.1055 20.8149 13.8667 21.1471 13.8667H22.2792C22.5978 13.8667 22.856 13.6193 22.856 13.3334C22.856 13.0388 22.6114 12.8001 22.2792 12.8001H21.1471C20.8285 12.8001 20.5703 12.5707 20.5703 12.2769V9.05656C20.5703 8.76762 20.8149 8.53339 21.1471 8.53339H22.2792C22.5978 8.53339 22.856 8.76169 22.856 9.07172V10.1284C22.856 10.4257 22.591 10.6667 22.2846 10.6667C21.969 10.6667 21.7132 10.9141 21.7132 11.2001C21.7132 11.4946 21.9578 11.7334 22.29 11.7334H23.4221C23.7406 11.7334 23.9989 11.4823 23.9989 11.205V9.0618C23.9989 8.76997 24.264 8.53339 24.5703 8.53339C24.8859 8.53339 25.1417 8.76169 25.1417 9.07172V10.1284C25.1417 10.4257 25.4068 10.6667 25.7132 10.6667C26.0288 10.6667 26.2846 10.4384 26.2846 10.1284V9.07172C26.2846 8.7744 26.5497 8.53339 26.856 8.53339C27.1716 8.53339 27.4275 8.76169 27.4275 9.07172V10.1284Z" fill="white"/>
</g>
</svg>
