<svg width="61" height="62" viewBox="0 0 61 62" fill="none" xmlns="http://www.w3.org/2000/svg">
<g clip-path="url(#clip0_912_480)">
<path d="M56.6436 14.5377V61.5H5.69385V0.500244H42.6062L49.1444 7.03856L56.6436 14.5377Z" fill="#FFFEFE"/>
<path d="M28.7918 4.58594H4.35645V15.5192H28.7918V4.58594Z" fill="#B43331"/>
<path d="M13.1213 8.17032C13.0134 7.90988 12.8698 7.67636 12.6722 7.47883C12.4746 7.28129 12.2321 7.11962 11.9537 7.0118C11.6663 6.89504 11.3429 6.84119 10.9838 6.84119H8.29834V13.7746H9.65452V11.161H10.9838C11.343 11.161 11.6663 11.1071 11.9537 10.9904C12.2321 10.8826 12.4745 10.721 12.6722 10.5233C12.8698 10.3258 13.0136 10.1012 13.1213 9.83185C13.2199 9.57141 13.2739 9.29298 13.2739 9.00561C13.2738 8.70919 13.2199 8.43076 13.1213 8.17032ZM11.6573 9.68805C11.4776 9.85866 11.2262 9.94849 10.9207 9.94849H9.65452V8.04451H10.9207C11.2262 8.04451 11.4776 8.13434 11.6573 8.31388C11.8279 8.48449 11.9176 8.71801 11.9176 9.00538C11.9177 9.28393 11.8279 9.51744 11.6573 9.68805Z" fill="#FFFEFE"/>
<path d="M19.6056 9.52625C19.5966 9.2838 19.5877 9.06828 19.5606 8.87062C19.5338 8.67297 19.4888 8.49342 19.4259 8.32281C19.3631 8.16114 19.2822 7.99947 19.1744 7.85578C18.9319 7.50551 18.6356 7.24507 18.3032 7.08339C17.962 6.92172 17.5579 6.84094 17.0818 6.84094H14.5852V13.7743H17.0819C17.558 13.7743 17.9621 13.6936 18.3033 13.5319C18.6357 13.3702 18.9321 13.1098 19.1745 12.7595C19.2823 12.6158 19.3632 12.4541 19.426 12.2925C19.4889 12.1219 19.5338 11.9422 19.5608 11.7447C19.5878 11.5471 19.5966 11.3315 19.6057 11.089C19.6146 10.8555 19.6146 10.5951 19.6146 10.3077C19.6145 10.0203 19.6145 9.75977 19.6056 9.52625ZM18.2494 11.0082C18.2494 11.2148 18.2315 11.3765 18.2134 11.5202C18.1954 11.6549 18.1686 11.7806 18.1326 11.8705C18.0968 11.9692 18.0428 12.0591 17.98 12.1398C17.7554 12.4272 17.4142 12.562 16.9652 12.562H15.9324V8.04438H16.9652C17.4142 8.04438 17.7555 8.18807 17.98 8.47543C18.0429 8.55621 18.0968 8.63711 18.1326 8.73587C18.1686 8.83464 18.1955 8.9514 18.2134 9.09508C18.2315 9.22983 18.2494 9.40044 18.2494 9.59798C18.2583 9.79563 18.2583 10.0381 18.2583 10.3075C18.2584 10.5771 18.2584 10.8106 18.2494 11.0082Z" fill="#FFFEFE"/>
<path d="M25.3983 8.04438V6.84094H20.8269V13.7743H22.1831V10.9633H24.9224V9.75083H22.1831V8.04438H25.3983Z" fill="#FFFEFE"/>
<path d="M13.1213 8.17032C13.0134 7.90988 12.8698 7.67636 12.6722 7.47883C12.4746 7.28129 12.2321 7.11962 11.9537 7.0118C11.6663 6.89504 11.3429 6.84119 10.9838 6.84119H8.29834V13.7746H9.65452V11.161H10.9838C11.343 11.161 11.6663 11.1071 11.9537 10.9904C12.2321 10.8826 12.4745 10.721 12.6722 10.5233C12.8698 10.3258 13.0136 10.1012 13.1213 9.83185C13.2199 9.57141 13.2739 9.29298 13.2739 9.00561C13.2738 8.70919 13.2199 8.43076 13.1213 8.17032ZM11.6573 9.68805C11.4776 9.85866 11.2262 9.94849 10.9207 9.94849H9.65452V8.04451H10.9207C11.2262 8.04451 11.4776 8.13434 11.6573 8.31388C11.8279 8.48449 11.9176 8.71801 11.9176 9.00538C11.9177 9.28393 11.8279 9.51744 11.6573 9.68805Z" fill="#FFFEFE"/>
<path opacity="0.08" d="M56.6436 14.5378V61.5H5.69385V50.4892L29.5118 26.6713L30.9219 25.2613L31.7032 24.4798L33.0054 23.1776L34.5502 21.6328L49.1444 7.03857L56.6436 14.5378Z" fill="#040000"/>
<path d="M56.6437 14.5391H42.6047V0.5L56.6437 14.5391Z" fill="#BBBBBA"/>
<path d="M49.3692 44.6604C49.0728 44.1395 48.6686 43.6455 48.1657 43.1965C47.7527 42.8193 47.2677 42.469 46.7197 42.1457C44.5105 40.8435 41.358 40.2148 37.074 40.2148H36.6429C36.4094 39.9992 36.1669 39.7837 35.9155 39.5591C34.2899 38.0953 32.9966 36.5056 31.9907 34.7363C33.9664 30.3804 34.9096 26.5006 34.7928 23.1955C34.7748 22.6387 34.6939 22.1178 34.5502 21.6328C34.3348 20.8514 33.9755 20.1598 33.4725 19.594C33.4636 19.5851 33.4636 19.5851 33.4546 19.576C32.6553 18.678 31.5417 18.166 30.41 18.166C29.2693 18.166 28.2186 18.66 27.4551 19.5671C26.7008 20.4652 26.2965 21.6957 26.2785 23.1416C26.2517 25.3509 26.4313 27.4435 26.8085 29.3744C26.8443 29.5271 26.8714 29.6798 26.9072 29.8324C27.2844 31.5838 27.8413 33.2452 28.5598 34.7899C27.7156 36.5053 26.8623 37.9872 26.2697 38.9931C25.8207 39.7566 25.3266 40.5559 24.8147 41.3552C22.5065 41.7684 20.5486 42.2713 18.8423 42.9C16.534 43.7353 14.6839 44.8129 13.3548 46.0972C12.4924 46.9235 11.9087 47.8037 11.6213 48.7197C11.3159 49.6627 11.334 50.6057 11.6752 51.45C11.9895 52.2313 12.5553 52.8869 13.3097 53.336C13.4894 53.4438 13.678 53.5335 13.8755 53.6144C14.4504 53.8479 15.0791 53.9736 15.7346 53.9736C17.2524 53.9736 18.8151 53.318 20.1354 52.1415C22.5961 49.9411 25.1379 46.4026 26.6376 44.1662C27.868 43.9776 29.2062 43.8159 30.7151 43.6542C32.4935 43.4746 34.0651 43.3669 35.4931 43.3129C35.9332 43.7081 36.3553 44.0853 36.7596 44.4445C39.0049 46.4473 40.7112 47.8933 42.256 48.9081C42.256 48.917 42.2649 48.917 42.2739 48.917C42.8847 49.3212 43.4684 49.6535 44.0522 49.9229C44.7077 50.2283 45.3724 50.39 46.0549 50.39C46.9172 50.39 47.7254 50.1295 48.399 49.6536C49.0816 49.1596 49.5755 48.4501 49.8001 47.6508C50.0608 46.6901 49.9081 45.6214 49.3692 44.6604ZM29.512 26.6712C29.3862 25.5575 29.3324 24.399 29.3503 23.1775C29.3682 22.019 29.7904 21.2376 30.4101 21.2376C30.877 21.2376 31.3711 21.6597 31.5957 22.4679C31.6586 22.7104 31.7035 22.9888 31.7124 23.3031C31.7303 23.6803 31.7214 24.0755 31.7035 24.4796C31.6496 25.6203 31.4519 26.8327 31.1106 28.135C30.9041 28.9703 30.6347 29.8414 30.3024 30.7485C29.9251 29.4733 29.6556 28.1171 29.512 26.6712ZM14.5315 50.3094C14.3788 49.9322 14.5494 49.2048 15.4834 48.3067C16.9113 46.9416 19.1476 45.8638 22.2642 45.0465C21.6714 45.8548 21.0877 46.5913 20.5218 47.2648C19.6596 48.3066 18.8333 49.1868 18.0879 49.8513C17.4503 50.4261 16.7497 50.7854 16.0851 50.8752C15.9683 50.8932 15.8516 50.9022 15.7348 50.9022C15.1512 50.9023 14.6751 50.6688 14.5315 50.3094ZM28.8832 40.7626L28.9461 40.6638L28.8473 40.6818C28.8652 40.6369 28.8922 40.592 28.9191 40.5561C29.2964 39.9185 29.7722 39.1012 30.2842 38.1582L30.3291 38.2569L30.4458 38.0145C30.823 38.5534 31.2362 39.0833 31.6673 39.5951C31.874 39.8376 32.0895 40.0711 32.3049 40.3046L32.1613 40.3135L32.287 40.4303C31.9189 40.4572 31.5328 40.4932 31.1465 40.5291C30.9039 40.556 30.6524 40.574 30.401 40.6009C29.8802 40.6548 29.3682 40.7087 28.8832 40.7626ZM43.9986 46.3667C42.9299 45.6842 41.7352 44.7232 40.2623 43.4388C42.3549 43.6544 43.9986 44.1125 45.166 44.795C45.678 45.0914 46.0641 45.3968 46.3246 45.6931C46.7557 46.1511 46.9085 46.5643 46.8274 46.8427C46.7557 47.1211 46.4413 47.3097 46.055 47.3097C45.8305 47.3097 45.5971 47.2559 45.3546 47.1391C44.9414 46.9416 44.5104 46.699 44.0523 46.4027C44.0343 46.4027 44.0164 46.3847 43.9986 46.3667Z" fill="#B43331"/>
</g>
<defs>
<clipPath id="clip0_912_480">
<rect width="61" height="61" fill="white" transform="translate(0 0.5)"/>
</clipPath>
</defs>
</svg>
